{"asset":{"generator":"Khronos glTF Spline I/O v0.0.1","version":"2.0"},"scenes":[{"nodes":[0]}],"nodes":[{"name":"","children":[1,2,3,4],"matrix":[0.01,0,0,0,0,0.01,0,0,0,0,0.01,0,0,0,0,1]},{"name":"","camera":0,"translation":[25.250573892724844,16.084430434565384,-33.520301904146315],"rotation":[-0.06204222600290394,0.9274027665718892,0.17812051348031221,0.32302933833464775]},{"name":"Floor","matrix":[-1.3322676295501752e-15,-4.996003610813157e-16,0.9999999999999903,0,1,-4.440892098500626e-16,1.3877787807814457e-15,0,3.3306690738754706e-16,1.0000000000000002,5.551115123125784e-16,0,-2.98164256415534,-299.4380031398841,1.6417231700528347,1],"mesh":0},{"name":"Directional Light","translation":[850000,1300000,1000999.9999999999],"rotation":[-0.458763705431548,0.13666973239363256,-0.25067225067940824,0.8414396410708783],"extensions":{"KHR_lights_punctual":{"light":0}}},{"name":"Group","matrix":[1,0,0,0,0,1,0,0,0,0,1,0,0,0,1.9555273093210497,1],"children":[5,6,7]},{"name":"Rectangle","matrix":[1,0,0,0,0,1,0,0,0,0,1,0,0,0,-1.9555273093210497,1],"mesh":1},{"name":"Rectangle 2","matrix":[1,0,0,0,0,1,0,0,0,0,1,0,-0.022530081812021763,0.07594827841827367,2.0782825319512837,1],"mesh":2},{"name":"Rectangle 3","matrix":[1,0,0,0,0,-1,1.2246467991473532e-16,0,0,-1.2246467991473532e-16,-1,0,-0.022530081812021763,0.07594827841827367,-2.0782825319512783,1],"mesh":3}],"cameras":[{"type":"orthographic","orthographic":{"xmag":1512,"ymag":716,"zfar":100000,"znear":-100000}}],"meshes":[{"primitives":[{"attributes":{"POSITION":1,"NORMAL":2,"TEXCOORD_0":3},"indices":0}]},{"primitives":[{"attributes":{"POSITION":5,"NORMAL":6,"TEXCOORD_0":7},"indices":4}]},{"primitives":[{"attributes":{"POSITION":9,"NORMAL":10,"TEXCOORD_0":11},"indices":8}]},{"primitives":[{"attributes":{"POSITION":13,"NORMAL":14,"TEXCOORD_0":15},"indices":12}]}],"buffers":[{"uri":"data:application/octet-stream;base64,","byteLength":152},{"uri":"data:application/octet-stream;base64,","byteLength":228240},{"uri":"data:application/octet-stream;base64,","byteLength":7192},{"uri":"data:application/octet-stream;base64,","byteLength":7192}],"bufferViews":[{"buffer":0,"byteOffset":0,"byteLength":24,"target":34963},{"buffer":0,"byteOffset":24,"byteLength":48,"target":34962},{"buffer":0,"byteOffset":72,"byteLength":48,"target":34962},{"buffer":0,"byteOffset":120,"byteLength":32,"target":34962},{"buffer":1,"byteOffset":0,"byteLength":39312,"target":34963},{"buffer":1,"byteOffset":39312,"byteLength":62976,"target":34962},{"buffer":1,"byteOffset":102288,"byteLength":62976,"target":34962},{"buffer":1,"byteOffset":165264,"byteLength":62976,"target":34962},{"buffer":2,"byteOffset":0,"byteLength":1944,"target":34963},{"buffer":2,"byteOffset":1944,"byteLength":1968,"target":34962},{"buffer":2,"byteOffset":3912,"byteLength":1968,"target":34962},{"buffer":2,"byteOffset":5880,"byteLength":1312,"target":34962},{"buffer":3,"byteOffset":0,"byteLength":1944,"target":34963},{"buffer":3,"byteOffset":1944,"byteLength":1968,"target":34962},{"buffer":3,"byteOffset":3912,"byteLength":1968,"target":34962},{"buffer":3,"byteOffset":5880,"byteLength":1312,"target":34962}],"accessors":[{"bufferView":0,"byteOffset":0,"componentType":5125,"count":6,"type":"SCALAR","min":[0],"max":[3]},{"bufferView":1,"byteOffset":0,"componentType":5126,"count":4,"type":"VEC3","min":[-401.5,-558,0],"max":[401.5,558,0]},{"bufferView":2,"byteOffset":0,"componentType":5126,"count":4,"type":"VEC3","min":[0,0,1],"max":[0,0,1]},{"bufferView":3,"byteOffset":0,"componentType":5126,"count":4,"type":"VEC2","min":[0,0],"max":[1,1]},{"bufferView":4,"byteOffset":0,"componentType":5125,"count":9828,"type":"SCALAR","min":[0],"max":[1967]},{"bufferView":5,"byteOffset":0,"componentType":5126,"count":1968,"type":"VEC3","min":[-24.16977310180664,-46.475067138671875,0],"max":[24.16977310180664,46.475067138671875,4]},{"bufferView":6,"byteOffset":0,"componentType":5126,"count":1968,"type":"VEC3","min":[-1,-1,-1],"max":[1,1,1]},{"bufferView":7,"byteOffset":0,"componentType":5126,"count":1968,"type":"VEC2","min":[0,0],"max":[1,1]},{"bufferView":8,"byteOffset":0,"componentType":5125,"count":486,"type":"SCALAR","min":[0],"max":[163]},{"bufferView":9,"byteOffset":0,"componentType":5126,"count":164,"type":"VEC3","min":[-21.779563903808594,-43.89112091064453,0],"max":[21.779563903808594,43.89112091064453,0]},{"bufferView":10,"byteOffset":0,"componentType":5126,"count":164,"type":"VEC3","min":[0,0,1],"max":[0,0,1]},{"bufferView":11,"byteOffset":0,"componentType":5126,"count":164,"type":"VEC2","min":[0,0],"max":[1,1]},{"bufferView":12,"byteOffset":0,"componentType":5125,"count":486,"type":"SCALAR","min":[0],"max":[163]},{"bufferView":13,"byteOffset":0,"componentType":5126,"count":164,"type":"VEC3","min":[-21.779563903808594,-43.89112091064453,0],"max":[21.779563903808594,43.89112091064453,0]},{"bufferView":14,"byteOffset":0,"componentType":5126,"count":164,"type":"VEC3","min":[0,0,1],"max":[0,0,1]},{"bufferView":15,"byteOffset":0,"componentType":5126,"count":164,"type":"VEC2","min":[0,0],"max":[1,1]}],"extensions":{"KHR_lights_punctual":{"lights":[{"type":"directional","name":"Directional Light","color":[1,1,1],"intensity":0.75}]}},"extensionsUsed":["KHR_lights_punctual"]}